PathFileType	4	(X/Y/Z)	 s02c0001.trc
DataRate	CameraRate	NumFrames	NumMarkers	Units	OrigDataRate	OrigDataStartFrame	OrigNumFrames
200	200	4	49	mm	200	251	2000
Frame#	Time	racr			lacr			c7			jug			rlel			rdr			llel			ldr			s2			lic			ric			lasi			rasi			rpsi			lpsi			rgt			lgt			rth1			rth2			rth3			rth4			rlfc			rmfc			rsh1			rsh2			rsh3			rsh4			rlmal			rmmal			rcal			rtoe			rmt5			rmt1			lth1			lth2			lth4			lth3			llfc			lmfc			lsh1			lsh2			lsh3			lsh4			llmal			lmmal			lcal			ltoe			lmt1			lmt5			
		X1	Y1	Z1	X2	Y2	Z2	X3	Y3	Z3	X4	Y4	Z4	X5	Y5	Z5	X6	Y6	Z6	X7	Y7	Z7	X8	Y8	Z8	X9	Y9	Z9	X10	Y10	Z10	X11	Y11	Z11	X12	Y12	Z12	X13	Y13	Z13	X14	Y14	Z14	X15	Y15	Z15	X16	Y16	Z16	X17	Y17	Z17	X18	Y18	Z18	X19	Y19	Z19	X20	Y20	Z20	X21	Y21	Z21	X22	Y22	Z22	X23	Y23	Z23	X24	Y24	Z24	X25	Y25	Z25	X26	Y26	Z26	X27	Y27	Z27	X28	Y28	Z28	X29	Y29	Z29	X30	Y30	Z30	X31	Y31	Z31	X32	Y32	Z32	X33	Y33	Z33	X34	Y34	Z34	X35	Y35	Z35	X36	Y36	Z36	X37	Y37	Z37	X38	Y38	Z38	X39	Y39	Z39	X40	Y40	Z40	X41	Y41	Z41	X42	Y42	Z42	X43	Y43	Z43	X44	Y44	Z44	X45	Y45	Z45	X46	Y46	Z46	X47	Y47	Z47	X48	Y48	Z48	X49	Y49	Z49	
251	1.2550	566.012929	1429.851979	566.622777	592.509558	1422.378316	163.454970	545.941391	1479.782447	359.265957	647.816119	1381.422859	367.170595	533.314918	1144.161860	636.129303	625.956122	1017.807064	779.908828	565.024037	1113.808151	130.409631	738.122722	1038.550589	23.850565	476.492960	973.814304	364.978430	634.459092	1018.083608	230.076324	601.278796	1020.426581	515.392847	681.255665	968.744253	262.192161	650.496783	971.632288	496.046400	485.989140	1000.095255	409.540055	497.961876	996.096607	325.158573	551.615203	886.503362	539.931138	568.174025	886.313399	206.378767	586.726776	802.133643	552.944904	604.842229	714.438347	550.102513	578.614805	633.061715	559.635461	638.149249	712.420657	532.111255	558.651772	499.217212	516.136624	562.476286	484.522345	412.027538	529.532425	398.168560	533.722781	543.697921	311.215777	517.964889	514.279170	230.011150	514.119721	564.059469	313.524452	484.277621	503.102573	101.130362	499.662362	514.942579	114.625639	421.759356	451.143454	53.607855	442.846614	726.882128	86.705270	498.871356	615.379901	48.226174	537.595534	657.185158	71.591715	436.110549	596.951046	760.068440	188.909247	606.957136	673.144417	195.200528	640.945776	670.462308	211.108899	570.338815	592.742348	204.038963	563.053514	495.021972	224.636447	559.459990	468.854937	322.560043	537.239422	399.236912	200.199774	555.335369	315.661541	215.495895	529.230940	228.759101	214.540873	575.135557	317.882828	250.747276	518.858239	114.102881	231.605445	541.694305	118.548219	309.790107	468.776550	58.285712	277.531318	751.351067	82.046445	249.412509	674.115863	70.499252	302.646065	646.700848	46.417057	196.245687	
252	1.2600	566.048094	1429.849426	566.623360	592.572670	1422.414345	163.444545	545.963914	1479.788517	359.280501	647.865438	1381.415249	367.192525	533.361054	1144.166702	636.111510	625.958943	1017.803932	779.919346	565.055089	1113.801998	130.411220	738.155715	1038.547275	23.855257	476.503913	973.812077	364.988432	634.481030	1018.079402	230.059310	601.304042	1020.435408	515.378260	681.285987	968.736230	262.189622	650.506703	971.626983	496.035761	486.011235	1000.108153	409.560127	497.989481	996.093268	325.172138	551.636157	886.503998	539.921452	568.194981	886.319555	206.367368	586.733280	802.136850	552.942869	604.863780	714.433148	550.111255	578.643473	633.070504	559.638061	638.162408	712.422449	532.116753	558.649365	499.223597	516.150905	562.502649	484.525373	412.023031	529.549837	398.169321	533.716878	543.713123	311.212774	517.959472	514.274180	230.017302	514.121350	564.060639	313.518379	484.272722	503.097052	101.136770	499.655696	516.076738	114.162654	421.533414	451.136437	53.615191	442.850174	726.866268	86.693948	498.896860	615.367217	48.225807	537.605806	657.152787	71.600142	436.126673	596.959361	760.052026	188.904477	606.978472	673.148505	195.189920	640.961357	670.446960	211.097677	570.358312	592.745170	204.035185	563.087446	495.033634	224.637558	559.466585	468.852465	322.550783	537.223635	399.234979	200.208303	555.355070	315.664511	215.493072	529.202957	228.743214	214.525020	575.116944	317.879956	250.731134	518.866725	114.121928	231.594674	541.666118	118.561255	309.798434	468.765403	58.284862	277.531275	751.335626	82.027557	249.402615	674.137937	70.493495	302.644855	646.719729	46.435652	196.244451	
253	1.2650	566.070131	1429.842440	566.621721	592.608641	1422.407286	163.441522	546.019895	1479.778694	359.266791	647.899637	1381.414367	367.173774	533.354914	1144.163397	636.097962	625.953431	1017.803581	779.901648	565.095444	1113.798873	130.402571	738.185940	1038.537952	23.864628	476.531847	973.809429	364.998179	634.511702	1018.066740	230.071145	601.326423	1020.436149	515.388303	681.305808	968.739914	262.181255	650.531260	971.628331	496.047638	486.035152	1000.099672	409.555370	498.010702	996.093804	325.163758	551.643558	886.512904	539.925706	568.228921	886.309920	206.388449	586.756337	802.125990	552.936817	604.872238	714.443495	550.101941	578.665570	633.050883	559.633798	638.175922	712.428492	532.114638	558.678511	499.219425	516.139112	562.513083	484.521809	412.020999	529.547098	398.174143	533.722977	543.695668	311.219376	517.944279	514.292561	230.040095	514.127709	564.072259	313.521526	484.270557	503.095471	101.151156	499.652637	516.079687	114.153395	421.539058	451.156822	53.602367	442.846775	726.881721	86.717688	498.880323	615.372497	48.223062	537.597905	657.167815	71.615364	436.106640	596.977119	760.057276	188.907905	606.978463	673.148542	195.189942	640.964297	670.444627	211.104315	570.376702	592.735310	204.036822	563.086619	495.033627	224.643168	559.466360	468.843436	322.550753	537.237514	399.242106	200.196963	555.356505	315.678823	215.500095	529.224213	228.754642	214.527084	575.117957	317.879813	250.745700	518.854832	114.117034	231.614550	541.674268	118.548567	309.800319	468.764389	58.296422	277.543183	751.339274	82.050152	249.404516	674.122213	70.491648	302.634954	646.708946	46.415604	196.235858	
254	1.2700	566.137332	1429.841879	566.646986	592.648999	1422.404858	163.443019	546.054599	1479.789871	359.263736	647.931083	1381.413216	367.199887	533.398521	1144.161874	636.077372	625.966420	1017.800065	779.886745	565.135837	1113.799745	130.387600	738.219874	1038.531680	23.864570	476.546366	973.817730	364.999921	634.516524	1018.062468	230.070951	601.352039	1020.444845	515.373516	681.321151	968.727342	262.195244	650.550924	971.629461	496.037234	486.055360	1000.102855	409.544736	498.029062	996.110990	325.147629	551.664363	886.499806	539.909375	568.235437	886.306577	206.381670	586.778952	802.126063	552.930177	604.890818	714.446734	550.096025	578.686285	633.056152	559.637282	638.201465	712.411335	532.121325	558.686393	499.215264	516.140039	562.507398	484.495237	412.019714	529.548668	398.175081	533.717356	543.725144	311.225652	517.964219	514.298044	230.005241	514.115139	564.061552	313.517200	484.289758	503.089651	101.139600	499.655650	514.947759	114.609081	421.745838	451.135407	53.619963	442.851699	726.883044	86.695844	498.890864	615.378625	48.217121	537.588621	657.174953	71.583269	436.118648	597.012876	760.063129	188.917908	606.984169	673.141606	195.187983	640.974527	670.449794	211.102139	570.374484	592.745491	204.042691	563.089511	495.036471	224.634232	559.470726	468.860572	322.554242	537.240268	399.247773	200.204562	555.350487	315.670827	215.492708	529.229807	228.748512	214.529878	575.123286	317.863045	250.745006	518.858313	114.116122	231.606078	541.675886	118.574648	309.794274	468.767903	58.283532	277.532363	751.341715	82.038926	249.414914	674.127342	70.483018	302.652244	646.707347	46.413547	196.235651	
